inDegrees=yes
name=ik_S48_A09_T01
DataType=double
version=3
OpenSimVersion=4.3-2021-08-27-4bc7ad9
endheader
time	pelvis_tilt	pelvis_list	pelvis_rotation	pelvis_tx	pelvis_ty	pelvis_tz	hip_flexion_r	hip_adduction_r	hip_rotation_r	knee_angle_r	knee_angle_r_beta	ankle_angle_r	subtalar_angle_r	mtp_angle_r	hip_flexion_l	hip_adduction_l	hip_rotation_l	knee_angle_l	knee_angle_l_beta	ankle_angle_l	subtalar_angle_l	mtp_angle_l	lumbar_extension	lumbar_bending	lumbar_rotation	arm_flex_r	arm_add_r	arm_rot_r	elbow_flex_r	pro_sup_r	wrist_flex_r	wrist_dev_r	arm_flex_l	arm_add_l	arm_rot_l	elbow_flex_l	pro_sup_l	wrist_flex_l	wrist_dev_l
6.039999999999959	-6.81413239099931	-5.399888557317277	33.89625843107597	0	0.9399999999999999	0	38.14559075457323	-13.32057987111378	-10.7650604670482	54.08498096054255	0.9439609936399128	0	0	0	38.14559075457323	-13.32057987111378	-10.7650604670482	54.08498096054255	0.9439609936399128	0	0	0	-5.898340767233427	-5.35727759725891	3.336330868738879	69.95440160918247	-0.3195198104198519	3.896268597661595	44.34142625044354	142.9202949595505	0	0	61.01894706202531	-17.197091200455	11.36919891541059	37.20592498721845	107.6182466437894	0	0
6.059999999999959	-6.861919466922073	-5.404424313848619	33.89019067220239	0	0.9399999999999999	0	38.14885727764295	-13.31506310519729	-10.76425031694648	54.08527060895552	0.9439660489583923	0	0	0	38.14885727764295	-13.31506310519729	-10.76425031694648	54.08527060895552	0.9439660489583923	0	0	0	-5.942503766979946	-5.331228428274126	3.332256304171665	70.00172670288659	-0.3128185524208983	3.722209153554758	44.28537241755983	143.0210649008221	0	0	61.09328905196621	-17.48228162191378	11.55570274241402	37.49090564612277	107.2280028413268	0	0
6.079999999999958	-6.87265270787324	-5.405088741523888	33.91411946089277	0	0.9399999999999999	0	38.15031366904346	-13.31262121825758	-10.7638907821439	54.08540060520276	0.9439683178209219	0	0	0	38.15031366904346	-13.31262121825758	-10.7638907821439	54.08540060520276	0.9439683178209219	0	0	0	-5.955478169234638	-5.318676219441104	3.29327894630515	69.95371853991843	-0.2838413183385777	3.531857894527947	44.33011447026174	142.9973491817254	0	0	61.13828886295194	-17.84511433405404	11.54174476730194	37.62094912302818	107.0186147956661	0	0
6.099999999999958	-6.9213827067075	-5.40535123779348	33.96403733151535	0	0.9399999999999999	0	38.15234644012576	-13.30919938337342	-10.76338760380658	54.08558126319554	0.943971470897716	0	0	0	38.15234644012576	-13.30919938337342	-10.76338760380658	54.08558126319554	0.943971470897716	0	0	0	-6.000554067579591	-5.283357840701272	3.253985952522719	69.97353956658438	-0.3015325678412777	3.413420002842956	44.39618244999092	142.9822633535902	0	0	61.25566076320307	-18.14452926831612	11.35077661593247	37.87273786556015	106.8011351574628	0	0
6.119999999999957	-6.98896994432334	-5.441202936215025	33.97621056462646	0	0.9399999999999999	0	38.15401490577607	-13.30639401059171	-10.76297486293342	54.08572962491568	0.9439740602982163	0	0	0	38.15401490577607	-13.30639401059171	-10.76297486293342	54.08572962491568	0.9439740602982163	0	0	0	-6.082746160753242	-5.263687188910336	3.194599056132655	70.06466508341381	-0.2099381932249744	3.393537492615141	44.47658949607722	142.9902581161578	0	0	61.4001034234259	-18.49043180958728	11.24483616796581	38.15280883342991	106.5360782867876	0	0
6.139999999999957	-7.045496788477159	-5.465780247688898	33.97009503880245	0	0.9399999999999999	0	38.15569962895104	-13.30357279056267	-10.76255915301824	54.08587993301133	0.9439766836693778	0	0	0	38.15569962895104	-13.30357279056267	-10.76255915301824	54.08587993301133	0.9439766836693778	0	0	0	-6.152140611497961	-5.235479604919443	3.101404028370575	70.14844973213059	-0.05453701040137506	3.521205909288811	44.54154434856573	142.8735336445548	0	0	61.40715286752471	-18.96108200242456	11.27166091081313	38.80377939521216	106.3784124472719	0	0
6.159999999999957	-7.103733645967221	-5.480023882288285	33.99430679858174	0	0.9399999999999999	0	38.15812438038651	-13.29949592402282	-10.76195919072954	54.08609530021032	0.9439804425361009	0	0	0	38.15812438038651	-13.29949592402282	-10.76195919072954	54.08609530021032	0.9439804425361009	0	0	0	-6.21770317381791	-5.196906712449456	3.005057018832394	70.20322916380307	0.06042014619560768	3.634838703249781	44.62541975791406	142.8078805322938	0	0	61.25685471416349	-19.48006856410507	11.09479148332565	39.72791847053654	106.1447322135039	0	0
6.179999999999956	-7.15122925546744	-5.506242609778202	34.08076595686768	0	0.9399999999999999	0	38.16031291841616	-13.29581310259929	-10.76141729844371	54.08628939347022	0.9439838301025423	0	0	0	38.16031291841616	-13.29581310259929	-10.76141729844371	54.08628939347022	0.9439838301025423	0	0	0	-6.283285022067389	-5.168902636309282	2.876802749560415	70.27622978882214	0.156262098056293	3.679390170089901	44.69287560747591	142.7569673419176	0	0	61.24762942238662	-20.17620724443682	10.22898774361474	40.44741293666222	106.1353772338179	0	0
6.199999999999956	-7.150490717826143	-5.498218196771533	34.24472046789183	0	0.9399999999999999	0	38.16249558465353	-13.29214377708962	-10.76087712916949	54.08648301698866	0.9439872094704482	0	0	0	38.16249558465353	-13.29214377708962	-10.76087712916949	54.08648301698866	0.9439872094704482	0	0	0	-6.290481797878479	-5.135918887956213	2.720868210828627	70.20151395382366	0.1906799807392479	3.685036409329837	44.72279717132493	142.8030644683784	0	0	61.21204305331738	-20.97743557074512	8.863054604437192	40.92971784589522	106.3634800273367	0	0
6.219999999999955	-7.177174812655365	-5.496264243045439	34.42179677284127	0	0.9399999999999999	0	38.16519846372463	-13.28760026259437	-10.76020814639409	54.08672262781463	0.9439913914682848	0	0	0	38.16519846372463	-13.28760026259437	-10.76020814639409	54.08672262781463	0.9439913914682848	0	0	0	-6.322489967023615	-5.093592121906789	2.580150622815662	70.17036711254252	0.1933003771027526	3.66476972371477	44.81020731569967	142.7291794347963	0	0	61.20842790868296	-21.78422375031939	7.717629659622157	41.57147243759489	105.5281839747403	0	0
6.239999999999955	-7.240482773401105	-5.484395893224026	34.60267372595546	0	0.9399999999999999	0	38.1677873275333	-13.28325493643134	-10.75956790471428	54.08695228283423	0.9439953997045205	0	0	0	38.1677873275333	-13.28325493643134	-10.75956790471428	54.08695228283423	0.9439953997045205	0	0	0	-6.379701550448557	-5.024772668154577	2.455765126111875	70.14494934101958	0.1564879493570986	3.791042348028766	44.81120055155173	142.2447760378069	0	0	61.25148967814876	-22.57717548881769	6.929756508239955	42.25617215310024	103.9733958522973	0	0
6.259999999999954	-7.235597584215047	-5.491860625023099	34.75397763446234	0	0.9399999999999999	0	38.17020865093036	-13.27919590293444	-10.75896948969349	54.08716717137576	0.9439991502170951	0	0	0	38.17020865093036	-13.27919590293444	-10.75896948969349	54.08716717137576	0.9439991502170951	0	0	0	-6.393187126232027	-5.006458891489583	2.297468067485103	70.019641779182	0.2169612784158312	3.887329190734761	44.8884199334552	141.9316830752123	0	0	61.24170275171678	-23.58462136167509	6.251625759608869	42.92889760682478	102.4760585235612	0	0
